<svg width="31" height="28" viewBox="0 0 31 28" fill="none" xmlns="http://www.w3.org/2000/svg">
<path fill-rule="evenodd" clip-rule="evenodd" d="M4.81103 5.24285L9.33765 0.900696L10.9197 2.41824L4.79345 8.2948L0.939026 4.59804L2.53923 3.06305L4.81103 5.24285ZM29.939 5.71148H15.9714V3.40377H29.939V5.71148Z" fill="#FF4646"/>
<path fill-rule="evenodd" clip-rule="evenodd" d="M4.81103 5.24285L9.33765 0.900696L10.9197 2.41824L4.79345 8.2948L0.939026 4.59804L2.53923 3.06305L4.81103 5.24285ZM29.939 5.71148H15.9714V3.40377H29.939V5.71148Z" fill="#FF4646"/>
<path fill-rule="evenodd" clip-rule="evenodd" d="M4.81103 23.8487L9.33765 19.5066L10.9197 21.0241L4.79345 26.9007L0.939026 23.2039L2.53923 21.6689L4.81103 23.8487ZM29.939 24.3174H15.9714V22.0097H29.939V24.3174Z" fill="#FF4646"/>
<path fill-rule="evenodd" clip-rule="evenodd" d="M4.81103 23.8487L9.33765 19.5066L10.9197 21.0241L4.79345 26.9007L0.939026 23.2039L2.53923 21.6689L4.81103 23.8487ZM29.939 24.3174H15.9714V22.0097H29.939V24.3174Z" fill="#FF4646"/>
<path fill-rule="evenodd" clip-rule="evenodd" d="M4.81103 14.5458L9.33765 10.2037L10.9197 11.7212L4.79345 17.5978L0.939026 13.901L2.53923 12.366L4.81103 14.5458ZM29.939 15.0145H15.9714V12.7067H29.939V15.0145Z" fill="#FF4646"/>
<path fill-rule="evenodd" clip-rule="evenodd" d="M4.81103 14.5458L9.33765 10.2037L10.9197 11.7212L4.79345 17.5978L0.939026 13.901L2.53923 12.366L4.81103 14.5458ZM29.939 15.0145H15.9714V12.7067H29.939V15.0145Z" fill="#FF4646"/>
<path fill-rule="evenodd" clip-rule="evenodd" d="M4.81103 5.24285L9.33765 0.900696L10.9197 2.41824L4.79345 8.2948L0.939026 4.59804L2.53923 3.06305L4.81103 5.24285ZM29.939 5.71148H15.9714V3.40377H29.939V5.71148Z" stroke="#FF4646" stroke-width="1.3"/>
<path fill-rule="evenodd" clip-rule="evenodd" d="M4.81103 5.24285L9.33765 0.900696L10.9197 2.41824L4.79345 8.2948L0.939026 4.59804L2.53923 3.06305L4.81103 5.24285ZM29.939 5.71148H15.9714V3.40377H29.939V5.71148Z" stroke="#FF4646" stroke-width="1.3"/>
<path fill-rule="evenodd" clip-rule="evenodd" d="M4.81103 23.8487L9.33765 19.5066L10.9197 21.0241L4.79345 26.9007L0.939026 23.2039L2.53923 21.6689L4.81103 23.8487ZM29.939 24.3174H15.9714V22.0097H29.939V24.3174Z" stroke="#FF4646" stroke-width="1.3"/>
<path fill-rule="evenodd" clip-rule="evenodd" d="M4.81103 23.8487L9.33765 19.5066L10.9197 21.0241L4.79345 26.9007L0.939026 23.2039L2.53923 21.6689L4.81103 23.8487ZM29.939 24.3174H15.9714V22.0097H29.939V24.3174Z" stroke="#FF4646" stroke-width="1.3"/>
<path fill-rule="evenodd" clip-rule="evenodd" d="M4.81103 14.5458L9.33765 10.2037L10.9197 11.7212L4.79345 17.5978L0.939026 13.901L2.53923 12.366L4.81103 14.5458ZM29.939 15.0145H15.9714V12.7067H29.939V15.0145Z" stroke="#FF4646" stroke-width="1.3"/>
<path fill-rule="evenodd" clip-rule="evenodd" d="M4.81103 14.5458L9.33765 10.2037L10.9197 11.7212L4.79345 17.5978L0.939026 13.901L2.53923 12.366L4.81103 14.5458ZM29.939 15.0145H15.9714V12.7067H29.939V15.0145Z" stroke="#FF4646" stroke-width="1.3"/>
</svg>
