<svg width="27" height="27" viewBox="0 0 27 27" fill="none" xmlns="http://www.w3.org/2000/svg">
<path d="M13.4999 0.500136C10.9288 0.500136 8.41539 1.26257 6.27756 2.69102C4.13973 4.11947 2.4735 6.14978 1.48957 8.52521C0.505633 10.9006 0.248191 13.5145 0.749796 16.0362C1.2514 18.558 2.48952 20.8743 4.3076 22.6924C6.12567 24.5105 8.44204 25.7486 10.9638 26.2502C13.4855 26.7518 16.0994 26.4944 18.4748 25.5104C20.8502 24.5265 22.8805 22.8603 24.309 20.7224C25.7374 18.5846 26.4999 16.0712 26.4999 13.5001C26.5077 11.7907 26.1768 10.0967 25.5262 8.51597C24.8757 6.93521 23.9184 5.499 22.7097 4.29028C21.501 3.08157 20.0648 2.1243 18.484 1.47376C16.9033 0.823225 15.2093 0.492312 13.4999 0.500136ZM13.4999 24.1364C11.3963 24.1364 9.33985 23.5126 7.59072 22.3438C5.84159 21.1751 4.47831 19.5139 3.67327 17.5704C2.86823 15.6269 2.6576 13.4883 3.068 11.425C3.47841 9.36178 4.49142 7.46657 5.97893 5.97906C7.46644 4.49155 9.36165 3.47854 11.4249 3.06813C13.4881 2.65773 15.6267 2.86836 17.5703 3.6734C19.5138 4.47844 21.175 5.84172 22.3437 7.59085C23.5124 9.33998 24.1362 11.3964 24.1362 13.5001C24.1207 16.3162 22.9951 19.0126 21.0038 21.0039C19.0125 22.9953 16.3161 24.1209 13.4999 24.1364Z" fill="white" stroke="white"/>
<path d="M13.4999 11.1364C13.1865 11.1364 12.8859 11.261 12.6643 11.4826C12.4426 11.7042 12.3181 12.0048 12.3181 12.3183V19.4091C12.3181 19.7226 12.4426 20.0232 12.6643 20.2448C12.8859 20.4664 13.1865 20.5909 13.4999 20.5909C13.8134 20.5909 14.114 20.4664 14.3356 20.2448C14.5572 20.0232 14.6817 19.7226 14.6817 19.4091V12.3183C14.6817 12.0048 14.5572 11.7042 14.3356 11.4826C14.114 11.261 13.8134 11.1364 13.4999 11.1364Z" fill="white" stroke="white"/>
<path d="M13.4999 8.7728C14.1526 8.7728 14.6817 8.24369 14.6817 7.59099C14.6817 6.93829 14.1526 6.40918 13.4999 6.40918C12.8472 6.40918 12.3181 6.93829 12.3181 7.59099C12.3181 8.24369 12.8472 8.7728 13.4999 8.7728Z" fill="white" stroke="white"/>
</svg>
